<?xml version="1.0" encoding="UTF-8" standalone="no"?>
<!-- Created with Inkscape (http://www.inkscape.org/) -->

<svg
   xmlns:dc="http://purl.org/dc/elements/1.1/"
   xmlns:cc="http://creativecommons.org/ns#"
   xmlns:rdf="http://www.w3.org/1999/02/22-rdf-syntax-ns#"
   xmlns:svg="http://www.w3.org/2000/svg"
   xmlns="http://www.w3.org/2000/svg"
   xmlns:sodipodi="http://sodipodi.sourceforge.net/DTD/sodipodi-0.dtd"
   xmlns:inkscape="http://www.inkscape.org/namespaces/inkscape"
   width="48"
   height="48"
   id="svg2"
   version="1.1"
   inkscape:version="0.48.4 r9939"
   sodipodi:docname="ranking.svg">
  <defs
     id="defs4" />
  <sodipodi:namedview
     id="base"
     pagecolor="#ffffff"
     bordercolor="#666666"
     borderopacity="1.0"
     inkscape:pageopacity="0.0"
     inkscape:pageshadow="2"
     inkscape:zoom="11.2"
     inkscape:cx="25.023377"
     inkscape:cy="11.21243"
     inkscape:document-units="px"
     inkscape:current-layer="layer1"
     showgrid="false"
     inkscape:window-width="958"
     inkscape:window-height="1198"
     inkscape:window-x="960"
     inkscape:window-y="0"
     inkscape:window-maximized="0"
     showguides="true"
     inkscape:guide-bbox="true" />
  <metadata
     id="metadata7">
    <rdf:RDF>
      <cc:Work
         rdf:about="">
        <dc:format>image/svg+xml</dc:format>
        <dc:type
           rdf:resource="http://purl.org/dc/dcmitype/StillImage" />
        <dc:title />
      </cc:Work>
    </rdf:RDF>
  </metadata>
  <g
     inkscape:label="Layer 1"
     inkscape:groupmode="layer"
     id="layer1"
     transform="translate(0,-1004.3622)">
    <g
       id="g3069">
      <rect
         ry="0"
         rx="0"
         y="1028.3622"
         x="2.0000005"
         height="9.5999022"
         width="14.739403"
         id="rect4726"
         style="fill:#000000;fill-opacity:1;stroke:none" />
      <rect
         ry="0"
         rx="0"
         y="1018.7623"
         x="16.630075"
         height="19.199804"
         width="14.739403"
         id="rect4726-3"
         style="fill:#000000;fill-opacity:1;stroke:none" />
      <rect
         ry="0"
         rx="0"
         y="1025.962"
         x="31.260149"
         height="12"
         width="14.73985"
         id="rect4726-1"
         style="fill:#000000;fill-opacity:1;stroke:none" />
      <flowRoot
         transform="translate(-3.4334827,1000.9621)"
         style="font-size:12px;font-style:normal;font-weight:normal;line-height:125%;letter-spacing:0px;word-spacing:0px;fill:#000000;fill-opacity:1;stroke:none;font-family:Sans"
         id="flowRoot2994"
         xml:space="preserve"><flowRegion
           id="flowRegion2996"><rect
             style="font-size:12px"
             y="-44.176418"
             x="-27.274118"
             height="61.366768"
             width="54.548237"
             id="rect2998" /></flowRegion><flowPara
           id="flowPara3000" /></flowRoot>      <g
         id="flowRoot3834"
         style="font-size:9px;font-style:normal;font-weight:normal;line-height:125%;letter-spacing:0px;word-spacing:0px;fill:#ffffff;fill-opacity:1;stroke:none;font-family:Sans"
         transform="translate(1.5867429,1010.8836)">
        <path
           inkscape:connector-curvature="0"
           id="path3061"
           d="m 8.5893555,22.620645 c 0.4248006,0.09082 0.7558549,0.279788 0.993164,0.566894 0.2402295,0.287112 0.3603466,0.641604 0.3603516,1.063477 -5e-6,0.647462 -0.222661,1.148438 -0.6679688,1.50293 -0.4453163,0.354492 -1.0781282,0.531738 -1.8984375,0.531738 -0.2753927,0 -0.5595721,-0.02783 -0.852539,-0.0835 -0.2900404,-0.05273 -0.590333,-0.133301 -0.9008789,-0.241699 l 0,-0.856934 c 0.2460928,0.143556 0.5156238,0.251954 0.8085937,0.325195 0.292967,0.07324 0.599119,0.109864 0.9184571,0.109864 0.5566376,0 0.979977,-0.109863 1.2700195,-0.32959 C 8.913082,24.989298 9.0595662,24.669963 9.0595703,24.251016 9.0595662,23.864299 8.9233359,23.562542 8.6508789,23.345742 8.3813442,23.126019 8.0048797,23.016156 7.5214844,23.016153 l -0.7646485,0 0,-0.729493 0.7998047,0 c 0.4365204,4e-6 0.7705044,-0.08642 1.0019532,-0.259277 0.2314414,-0.175777 0.347164,-0.42773 0.3471679,-0.755859 -3.9e-6,-0.336909 -0.120121,-0.594721 -0.3603515,-0.773438 -0.2373081,-0.181635 -0.5786164,-0.272455 -1.0239258,-0.272461 -0.2431664,6e-6 -0.5039084,0.02637 -0.7822266,0.0791 -0.2783218,0.05274 -0.5844739,0.134771 -0.918457,0.246094 l 0,-0.791016 c 0.3369128,-0.09374 0.6518539,-0.164056 0.9448242,-0.210938 0.2958963,-0.04687 0.5742163,-0.07031 0.8349609,-0.07031 0.6738248,7e-6 1.2070274,0.153815 1.5996094,0.461426 0.3925735,0.304693 0.5888623,0.717779 0.5888672,1.239258 -4.9e-6,0.363285 -0.1040087,0.670902 -0.3120117,0.922851 -0.2080122,0.249027 -0.5039103,0.421879 -0.8876953,0.518555" />
      </g>
      <g
         id="flowRoot3834-2"
         style="font-size:9px;font-style:normal;font-weight:normal;line-height:125%;letter-spacing:0px;word-spacing:0px;fill:#ffffff;fill-opacity:1;stroke:none;font-family:Sans"
         transform="translate(16.120138,1001.1651)">
        <path
           inkscape:connector-curvature="0"
           id="path3058"
           d="m 6.0537109,25.411172 1.4501953,0 0,-5.005371 -1.5776367,0.316406 0,-0.808593 1.5688477,-0.316407 0.8876953,0 0,5.813965 1.4501953,0 0,0.74707 -3.7792969,0 0,-0.74707" />
      </g>
      <g
         id="flowRoot3834-1"
         style="font-size:9px;font-style:normal;font-weight:normal;line-height:125%;letter-spacing:0px;word-spacing:0px;fill:#ffffff;fill-opacity:1;stroke:none;font-family:Sans"
         transform="translate(30.950387,1008.4835)">
        <path
           inkscape:connector-curvature="0"
           id="path3055"
           d="m 6.6645508,25.411172 3.0981445,0 0,0.74707 -4.1660156,0 0,-0.74707 c 0.3369131,-0.348632 0.7954087,-0.815916 1.3754883,-1.401855 0.5830052,-0.588865 0.9492157,-0.968259 1.0986328,-1.138184 0.2841763,-0.319332 0.48193,-0.588863 0.5932617,-0.808594 0.114254,-0.222652 0.1713828,-0.440913 0.1713867,-0.654785 -3.9e-6,-0.348628 -0.1230506,-0.632807 -0.3691406,-0.852539 -0.2431674,-0.219721 -0.5610381,-0.329584 -0.9536133,-0.32959 -0.2783226,6e-6 -0.5727559,0.04835 -0.8833008,0.14502 -0.3076185,0.09669 -0.6372081,0.243169 -0.9887695,0.439453 l 0,-0.896484 c 0.3574208,-0.143549 0.6914049,-0.251947 1.0019531,-0.325196 0.3105449,-0.07324 0.5947243,-0.109856 0.8525391,-0.109863 0.6796843,7e-6 1.2216759,0.169928 1.6259766,0.509766 0.4042922,0.339849 0.6064405,0.79395 0.6064453,1.362304 -4.8e-6,0.269536 -0.051274,0.525883 -0.1538086,0.769043 -0.099614,0.240238 -0.2827192,0.524418 -0.5493164,0.852539 -0.073246,0.08496 -0.3061562,0.331058 -0.6987305,0.738282 -0.3925811,0.404298 -0.9462915,0.971192 -1.6611328,1.700683" />
      </g>
    </g>
  </g>
</svg>
