<?xml version="1.0" encoding="UTF-8" standalone="no"?>
<!-- Created with Inkscape (http://www.inkscape.org/) -->

<svg
   xmlns:dc="http://purl.org/dc/elements/1.1/"
   xmlns:cc="http://creativecommons.org/ns#"
   xmlns:rdf="http://www.w3.org/1999/02/22-rdf-syntax-ns#"
   xmlns:svg="http://www.w3.org/2000/svg"
   xmlns="http://www.w3.org/2000/svg"
   xmlns:sodipodi="http://sodipodi.sourceforge.net/DTD/sodipodi-0.dtd"
   xmlns:inkscape="http://www.inkscape.org/namespaces/inkscape"
   width="128"
   height="128"
   id="svg2"
   version="1.1"
   inkscape:version="0.48.4 r9939"
   sodipodi:docname="ranking.svg"
   inkscape:export-filename="/home/elor/code/boules/images/ranking.png"
   inkscape:export-xdpi="90"
   inkscape:export-ydpi="90">
  <defs
     id="defs4" />
  <sodipodi:namedview
     id="base"
     pagecolor="#ffffff"
     bordercolor="#666666"
     borderopacity="1.0"
     inkscape:pageopacity="0.0"
     inkscape:pageshadow="2"
     inkscape:zoom="3.959798"
     inkscape:cx="49.312204"
     inkscape:cy="36.039467"
     inkscape:document-units="px"
     inkscape:current-layer="layer1"
     showgrid="false"
     inkscape:window-width="1918"
     inkscape:window-height="1078"
     inkscape:window-x="0"
     inkscape:window-y="0"
     inkscape:window-maximized="0"
     showguides="true"
     inkscape:guide-bbox="true" />
  <metadata
     id="metadata7">
    <rdf:RDF>
      <cc:Work
         rdf:about="">
        <dc:format>image/svg+xml</dc:format>
        <dc:type
           rdf:resource="http://purl.org/dc/dcmitype/StillImage" />
        <dc:title />
      </cc:Work>
    </rdf:RDF>
  </metadata>
  <g
     inkscape:label="Layer 1"
     inkscape:groupmode="layer"
     id="layer1"
     transform="translate(0,-924.3622)">
    <g
       transform="matrix(-2.909091,0,0,4.9741368,143.8065,835.91526)"
       style="font-size:12px;font-style:normal;font-weight:normal;line-height:125%;letter-spacing:0px;word-spacing:0px;fill:#000000;fill-opacity:1;stroke:none;font-family:Sans"
       id="flowRoot2994" />
    <path
       id="rect4726"
       transform="translate(0,924.3622)"
       style="fill:#000000;fill-opacity:1;stroke:none"
       d="m 85.125,74.25 0,47.75 42.875,0 0,-47.75 -42.875,0 z m 7.0625,8.28125 7.15625,0 0,28.65625 -7.15625,0 0,-28.65625 z m 10.78125,0 7.15625,0 0,28.65625 -7.15625,0 0,-28.65625 z m 10.8125,0 7.15625,0 0,28.65625 -7.15625,0 0,-28.65625 z M 0,61.0625 0,122 l 42.875,0 0,-60.9375 -42.875,0 z m 12.46875,8.28125 7.15625,0 0,28.625 -7.15625,0 0,-28.625 z m 10.78125,0 7.15625,0 0,28.625 -7.15625,0 0,-28.625 z M 42.5625,26.5 l 0,95.5 42.875,0 0,-95.5 -42.875,0 z m 17.84375,8.28125 7.1875,0 0,28.65625 -7.1875,0 0,-28.65625 z" />
  </g>
</svg>
