<?xml version="1.0" encoding="UTF-8" standalone="no"?>
<svg
   xmlns:dc="http://purl.org/dc/elements/1.1/"
   xmlns:cc="http://creativecommons.org/ns#"
   xmlns:rdf="http://www.w3.org/1999/02/22-rdf-syntax-ns#"
   xmlns:svg="http://www.w3.org/2000/svg"
   xmlns="http://www.w3.org/2000/svg"
   xmlns:sodipodi="http://sodipodi.sourceforge.net/DTD/sodipodi-0.dtd"
   xmlns:inkscape="http://www.inkscape.org/namespaces/inkscape"
   width="128"
   height="128"
   viewBox="0 0 102.4 102.4"
   version="1.1"
   id="svg2"
   inkscape:version="0.48.4 r9939"
   sodipodi:docname="games_black.svg"
   inkscape:export-filename="/home/elor/code/tuvero/tac/images/games.png"
   inkscape:export-xdpi="90"
   inkscape:export-ydpi="90">
  <metadata
     id="metadata25">
    <rdf:RDF>
      <cc:Work
         rdf:about="">
        <dc:format>image/svg+xml</dc:format>
        <dc:type
           rdf:resource="http://purl.org/dc/dcmitype/StillImage" />
        <dc:title />
      </cc:Work>
    </rdf:RDF>
  </metadata>
  <defs
     id="defs23" />
  <sodipodi:namedview
     pagecolor="#ffffff"
     bordercolor="#666666"
     borderopacity="1"
     objecttolerance="10"
     gridtolerance="10"
     guidetolerance="10"
     inkscape:pageopacity="0"
     inkscape:pageshadow="2"
     inkscape:window-width="958"
     inkscape:window-height="1078"
     id="namedview21"
     showgrid="false"
     inkscape:zoom="2.8934866"
     inkscape:cx="55.628269"
     inkscape:cy="56.780287"
     inkscape:window-x="960"
     inkscape:window-y="0"
     inkscape:window-maximized="0"
     inkscape:current-layer="svg2" />
  <path
     style="fill:#000000;fill-opacity:1"
     inkscape:connector-curvature="0"
     id="path5"
     d="m 25.582513,6.8130908 c 9.54514,5.4116522 17.13719,14.0930262 21.463015,24.1609722 2.67173,6.238699 4.135236,13.021187 4.138733,19.814165 C 50.652713,51.008541 50.182362,50.527699 49.726,50.328369 47.928527,49.109654 46.117066,47.899682 44.448984,46.504368 32.657003,36.978461 25.472357,21.986699 25.582513,6.8130908 z" />
  <path
     style="fill:#000000;fill-opacity:1"
     inkscape:connector-curvature="0"
     id="path8"
     d="m 69.790203,11.654727 c 2.18914,-1.8149578 4.525155,-3.4620583 7.009794,-4.8468817 0.05595,13.0054497 -5.15462,25.9182287 -14.143733,35.3060027 -2.944498,3.173554 -6.385575,5.833044 -9.991011,8.209275 -0.398661,0.23605 -0.799071,0.468602 -1.209972,0.683669 l -0.122396,0.04022 c -0.007,-0.07344 -0.02448,-0.218564 -0.03147,-0.290253 -0.195834,-1.711796 0.01399,-3.430586 0.178348,-5.133639 1.369087,-13.131343 8.10961,-25.594753 18.310443,-33.968389 z" />
  <path
     style="fill:#000000;fill-opacity:1"
     inkscape:connector-curvature="0"
     id="path11"
     d="M 1.7974719,50.144775 C 10.758608,45.432528 21.144784,43.50042 31.202239,44.645697 c 6.471251,0.657441 12.758909,2.690964 18.523761,5.682672 0.456362,0.19933 0.926713,0.680172 1.458261,0.459859 l 0.117151,-0.03147 c 0.007,0.07169 0.02448,0.216815 0.03147,0.290253 -0.104911,0.139881 -0.232553,0.255283 -0.379428,0.349703 -0.230804,0.11715 -0.463356,0.234301 -0.69416,0.354948 -0.636459,0.288505 -1.260679,0.604986 -1.879653,0.931959 -6.735277,3.350153 -14.220668,5.194836 -21.742777,5.327723 -7.22661,0.183594 -14.47595,-1.2362 -21.1342931,-4.040817 C 3.6229209,53.138231 1.7432679,52.281459 -9.4080001e-7,51.186889 0.55777515,50.770743 1.1872403,50.471747 1.7974719,50.144775 z" />
  <path
     style="fill:#000000;fill-opacity:1"
     inkscape:connector-curvature="0"
     id="path13"
     d="m 58.473818,47.719585 c 11.213222,-4.338064 23.959892,-4.505921 35.304254,-0.538542 2.97772,1.084079 5.930961,2.320278 8.621928,4.005846 -2.486391,1.519459 -5.168612,2.706701 -7.896295,3.720839 -8.621924,3.173554 -18.104118,3.941151 -27.131698,2.245092 -4.986763,-0.923215 -9.814411,-2.628017 -14.32383,-4.941301 -0.519308,-0.328721 -1.057851,-0.622471 -1.61213,-0.888246 0.0052,-0.07868 0.01399,-0.237798 0.01923,-0.316481 0.410901,-0.215067 0.811311,-0.447619 1.209972,-0.683669 1.911126,-0.921467 3.81351,-1.874407 5.808565,-2.603538 z" />
  <path
     style="fill:#000000;fill-opacity:1"
     inkscape:connector-curvature="0"
     id="path16"
     d="m 50.259297,51.751659 c 0.230804,-0.120647 0.463356,-0.237798 0.69416,-0.354948 l 0.153869,-0.07169 c 0.187091,1.762502 0.0035,3.540742 -0.160863,5.297999 -1.115552,10.842537 -5.86102,21.251444 -13.231008,29.271879 -3.509269,3.822253 -7.597295,7.128693 -12.110211,9.697261 -0.04546,-10.802322 3.518011,-21.559183 9.914077,-30.254545 3.280213,-4.526903 7.335017,-8.490786 11.917874,-11.692315 0.919718,-0.660939 1.891892,-1.246691 2.822102,-1.893642 z" />
  <path
     style="fill:#000000;fill-opacity:1"
     inkscape:connector-curvature="0"
     id="path19"
     d="m 51.259447,51.321525 0.1766,0.0017 c 0.554279,0.265775 1.092822,0.559525 1.61213,0.888246 1.564921,1.255433 3.301196,2.285308 4.820655,3.601939 11.844436,9.520661 19.069298,24.55264 18.953896,39.766463 C 69.330344,91.315295 63.00247,85.052116 58.571734,77.662894 54.807183,71.438183 52.38549,64.402161 51.554946,57.173803 51.380095,55.229455 51.112572,53.274615 51.259447,51.321525 z" />
</svg>
