<?xml version="1.0" encoding="UTF-8" standalone="no"?>
<svg
   xmlns:dc="http://purl.org/dc/elements/1.1/"
   xmlns:cc="http://creativecommons.org/ns#"
   xmlns:rdf="http://www.w3.org/1999/02/22-rdf-syntax-ns#"
   xmlns:svg="http://www.w3.org/2000/svg"
   xmlns="http://www.w3.org/2000/svg"
   xmlns:sodipodi="http://sodipodi.sourceforge.net/DTD/sodipodi-0.dtd"
   xmlns:inkscape="http://www.inkscape.org/namespaces/inkscape"
   width="128"
   height="128"
   viewBox="0 0 102.4 102.4"
   version="1.1"
   id="svg2"
   inkscape:version="0.48.4 r9939"
   sodipodi:docname="games.svg"
   inkscape:export-filename="/home/elor/code/tuvero/tac/images/games.png"
   inkscape:export-xdpi="90"
   inkscape:export-ydpi="90">
  <metadata
     id="metadata25">
    <rdf:RDF>
      <cc:Work
         rdf:about="">
        <dc:format>image/svg+xml</dc:format>
        <dc:type
           rdf:resource="http://purl.org/dc/dcmitype/StillImage" />
        <dc:title></dc:title>
      </cc:Work>
    </rdf:RDF>
  </metadata>
  <defs
     id="defs23" />
  <sodipodi:namedview
     pagecolor="#ffffff"
     bordercolor="#666666"
     borderopacity="1"
     objecttolerance="10"
     gridtolerance="10"
     guidetolerance="10"
     inkscape:pageopacity="0"
     inkscape:pageshadow="2"
     inkscape:window-width="958"
     inkscape:window-height="1078"
     id="namedview21"
     showgrid="false"
     inkscape:zoom="4.092008"
     inkscape:cx="64.071083"
     inkscape:cy="81.009958"
     inkscape:window-x="960"
     inkscape:window-y="0"
     inkscape:window-maximized="0"
     inkscape:current-layer="svg2" />
  <g
     id="g3022"
     transform="translate(-249.3,210.825)">
    <g
       transform="matrix(0.17485144,0,0,0.17485144,247.95714,-205.082)"
       id="#189dd9ff">
      <path
         style="fill:#189dd9"
         inkscape:connector-curvature="0"
         id="path5"
         d="m 153.99,6.12 c 54.59,30.95 98.01,80.6 122.75,138.18 15.28,35.68 23.65,74.47 23.67,113.32 -3.04,1.26 -5.73,-1.49 -8.34,-2.63 C 281.79,248.02 271.43,241.1 261.89,233.12 194.45,178.64 153.36,92.9 153.99,6.12 z" />
    </g>
    <g
       transform="matrix(0.17485144,0,0,0.17485144,247.95714,-205.082)"
       id="#e30917ff">
      <path
         style="fill:#e30917"
         inkscape:connector-curvature="0"
         id="path8"
         d="m 406.82,33.81 c 12.52,-10.38 25.88,-19.8 40.09,-27.72 0.32,74.38 -29.48,148.23 -80.89,201.92 -16.84,18.15 -36.52,33.36 -57.14,46.95 -2.28,1.35 -4.57,2.68 -6.92,3.91 l -0.7,0.23 c -0.04,-0.42 -0.14,-1.25 -0.18,-1.66 -1.12,-9.79 0.08,-19.62 1.02,-29.36 7.83,-75.1 46.38,-146.38 104.72,-194.27 z" />
    </g>
    <g
       transform="matrix(0.17485144,0,0,0.17485144,247.95714,-205.082)"
       id="#878786ff">
      <path
         style="fill:#878786"
         inkscape:connector-curvature="0"
         id="path11"
         d="m 17.96,253.94 c 51.25,-26.95 110.65,-38 168.17,-31.45 37.01,3.76 72.97,15.39 105.94,32.5 2.61,1.14 5.3,3.89 8.34,2.63 l 0.67,-0.18 c 0.04,0.41 0.14,1.24 0.18,1.66 -0.6,0.8 -1.33,1.46 -2.17,2 -1.32,0.67 -2.65,1.34 -3.97,2.03 -3.64,1.65 -7.21,3.46 -10.75,5.33 -38.52,19.16 -81.33,29.71 -124.35,30.47 -41.33,1.05 -82.79,-7.07 -120.87,-23.11 -10.75,-4.76 -21.5,-9.66 -31.47,-15.92 3.19,-2.38 6.79,-4.09 10.28,-5.96 z" />
      <path
         style="fill:#878786"
         inkscape:connector-curvature="0"
         id="path13"
         d="m 342.1,240.07 c 64.13,-24.81 137.03,-25.77 201.91,-3.08 17.03,6.2 33.92,13.27 49.31,22.91 -14.22,8.69 -29.56,15.48 -45.16,21.28 -49.31,18.15 -103.54,22.54 -155.17,12.84 -28.52,-5.28 -56.13,-15.03 -81.92,-28.26 -2.97,-1.88 -6.05,-3.56 -9.22,-5.08 0.03,-0.45 0.08,-1.36 0.11,-1.81 2.35,-1.23 4.64,-2.56 6.92,-3.91 10.93,-5.27 21.81,-10.72 33.22,-14.89 z" />
    </g>
    <g
       transform="matrix(0.17485144,0,0,0.17485144,247.95714,-205.082)"
       id="#96c120ff">
      <path
         style="fill:#96c120"
         inkscape:connector-curvature="0"
         id="path16"
         d="m 295.12,263.13 c 1.32,-0.69 2.65,-1.36 3.97,-2.03 l 0.88,-0.41 c 1.07,10.08 0.02,20.25 -0.92,30.3 -6.38,62.01 -33.52,121.54 -75.67,167.41 -20.07,21.86 -43.45,40.77 -69.26,55.46 -0.26,-61.78 20.12,-123.3 56.7,-173.03 18.76,-25.89 41.95,-48.56 68.16,-66.87 5.26,-3.78 10.82,-7.13 16.14,-10.83 z" />
    </g>
    <g
       transform="matrix(0.17485144,0,0,0.17485144,247.95714,-205.082)"
       id="#182e4dff">
      <path
         style="fill:#182e4d"
         inkscape:connector-curvature="0"
         id="path19"
         d="m 300.84,260.67 1.01,0.01 c 3.17,1.52 6.25,3.2 9.22,5.08 8.95,7.18 18.88,13.07 27.57,20.6 67.74,54.45 109.06,140.42 108.4,227.43 C 404.19,489.4 368,453.58 342.66,411.32 c -21.53,-35.6 -35.38,-75.84 -40.13,-117.18 -1,-11.12 -2.53,-22.3 -1.69,-33.47 z" />
    </g>
  </g>
</svg>
