<?xml version="1.0" encoding="UTF-8" standalone="no"?>
<!-- Created with Inkscape (http://www.inkscape.org/) -->

<svg
   xmlns:dc="http://purl.org/dc/elements/1.1/"
   xmlns:cc="http://creativecommons.org/ns#"
   xmlns:rdf="http://www.w3.org/1999/02/22-rdf-syntax-ns#"
   xmlns:svg="http://www.w3.org/2000/svg"
   xmlns="http://www.w3.org/2000/svg"
   xmlns:sodipodi="http://sodipodi.sourceforge.net/DTD/sodipodi-0.dtd"
   xmlns:inkscape="http://www.inkscape.org/namespaces/inkscape"
   width="128"
   height="128"
   id="svg2"
   version="1.1"
   inkscape:version="0.48.4 r9939"
   sodipodi:docname="settings.svg"
   inkscape:export-filename="/home/elor/code/boules/images/settings.png"
   inkscape:export-xdpi="90"
   inkscape:export-ydpi="90">
  <sodipodi:namedview
     id="base"
     pagecolor="#ffffff"
     bordercolor="#666666"
     borderopacity="1.0"
     inkscape:pageopacity="0.0"
     inkscape:pageshadow="2"
     inkscape:zoom="3.959798"
     inkscape:cx="61.118099"
     inkscape:cy="75.777047"
     inkscape:document-units="px"
     inkscape:current-layer="svg2"
     showgrid="false"
     inkscape:window-width="1918"
     inkscape:window-height="1078"
     inkscape:window-x="0"
     inkscape:window-y="0"
     inkscape:window-maximized="0"
     showguides="true"
     inkscape:guide-bbox="true" />
  <defs
     id="defs4">
    <marker
       style="overflow:visible"
       id="StopS"
       refX="0"
       refY="0"
       orient="auto"
       inkscape:stockid="StopS">
      <path
         transform="scale(0.2,0.2)"
         style="fill:none;stroke:#000000;stroke-width:1pt"
         d="M 0,5.65 0,-5.65"
         id="path4693"
         inkscape:connector-curvature="0" />
    </marker>
    <marker
       orient="auto"
       refY="0"
       refX="0"
       id="InfiniteLineEnd"
       inkscape:stockid="InfiniteLineEnd"
       style="overflow:visible">
      <g
         style="fill:#000000"
         id="g4753">
        <circle
           cx="3"
           cy="0"
           r="0.80000001"
           id="circle4755"
           sodipodi:cx="3"
           sodipodi:cy="0"
           sodipodi:rx="0.80000001"
           sodipodi:ry="0.80000001" />
        <circle
           cx="6.5"
           cy="0"
           r="0.80000001"
           id="circle4757"
           sodipodi:cx="6.5"
           sodipodi:cy="0"
           sodipodi:rx="0.80000001"
           sodipodi:ry="0.80000001" />
        <circle
           cx="10"
           cy="0"
           r="0.80000001"
           id="circle4759"
           sodipodi:cx="10"
           sodipodi:cy="0"
           sodipodi:rx="0.80000001"
           sodipodi:ry="0.80000001" />
      </g>
    </marker>
    <marker
       style="overflow:visible"
       id="TriangleOutS"
       refX="0"
       refY="0"
       orient="auto"
       inkscape:stockid="TriangleOutS">
      <path
         transform="scale(0.2,0.2)"
         style="fill-rule:evenodd;stroke:#000000;stroke-width:1pt"
         d="m 5.77,0 -8.65,5 0,-10 8.65,5 z"
         id="path4666"
         inkscape:connector-curvature="0" />
    </marker>
    <marker
       style="overflow:visible"
       id="TriangleOutM"
       refX="0"
       refY="0"
       orient="auto"
       inkscape:stockid="TriangleOutM">
      <path
         transform="scale(0.4,0.4)"
         style="fill-rule:evenodd;stroke:#000000;stroke-width:1pt"
         d="m 5.77,0 -8.65,5 0,-10 8.65,5 z"
         id="path4663"
         inkscape:connector-curvature="0" />
    </marker>
    <marker
       style="overflow:visible"
       id="DotL"
       refX="0"
       refY="0"
       orient="auto"
       inkscape:stockid="DotL">
      <path
         transform="matrix(0.8,0,0,0.8,5.92,0.8)"
         style="fill-rule:evenodd;stroke:#000000;stroke-width:1pt"
         d="m -2.5,-1 c 0,2.76 -2.24,5 -5,5 -2.76,0 -5,-2.24 -5,-5 0,-2.76 2.24,-5 5,-5 2.76,0 5,2.24 5,5 z"
         id="path4579"
         inkscape:connector-curvature="0" />
    </marker>
    <marker
       style="overflow:visible"
       id="TriangleOutL"
       refX="0"
       refY="0"
       orient="auto"
       inkscape:stockid="TriangleOutL">
      <path
         transform="scale(0.8,0.8)"
         style="fill-rule:evenodd;stroke:#000000;stroke-width:1pt"
         d="m 5.77,0 -8.65,5 0,-10 8.65,5 z"
         id="path4660"
         inkscape:connector-curvature="0" />
    </marker>
    <marker
       style="overflow:visible"
       id="DiamondS"
       refX="0"
       refY="0"
       orient="auto"
       inkscape:stockid="DiamondS">
      <path
         transform="scale(0.2,0.2)"
         style="fill-rule:evenodd;stroke:#000000;stroke-width:1pt"
         d="M 0,-7.0710768 -7.0710894,0 0,7.0710589 7.0710462,0 0,-7.0710768 z"
         id="path4603"
         inkscape:connector-curvature="0" />
    </marker>
    <marker
       style="overflow:visible"
       id="SquareL"
       refX="0"
       refY="0"
       orient="auto"
       inkscape:stockid="SquareL">
      <path
         transform="scale(0.8,0.8)"
         style="fill-rule:evenodd;stroke:#000000;stroke-width:1pt"
         d="M -5,-5 -5,5 5,5 5,-5 -5,-5 z"
         id="path4588"
         inkscape:connector-curvature="0" />
    </marker>
    <marker
       style="overflow:visible"
       id="Arrow1Mend"
       refX="0"
       refY="0"
       orient="auto"
       inkscape:stockid="Arrow1Mend">
      <path
         transform="matrix(-0.4,0,0,-0.4,-4,0)"
         style="fill-rule:evenodd;stroke:#000000;stroke-width:1pt"
         d="M 0,0 5,-5 -12.5,0 5,5 0,0 z"
         id="path4527"
         inkscape:connector-curvature="0" />
    </marker>
    <marker
       style="overflow:visible"
       id="Arrow2Mend"
       refX="0"
       refY="0"
       orient="auto"
       inkscape:stockid="Arrow2Mend">
      <path
         transform="scale(-0.6,-0.6)"
         d="M 8.7185878,4.0337352 -2.2072895,0.01601326 8.7185884,-4.0017078 c -1.7454984,2.3720609 -1.7354408,5.6174519 -6e-7,8.035443 z"
         style="fill-rule:evenodd;stroke-width:0.625;stroke-linejoin:round"
         id="path4545"
         inkscape:connector-curvature="0" />
    </marker>
    <marker
       style="overflow:visible"
       id="Arrow2Lend"
       refX="0"
       refY="0"
       orient="auto"
       inkscape:stockid="Arrow2Lend">
      <path
         transform="matrix(-1.1,0,0,-1.1,-1.1,0)"
         d="M 8.7185878,4.0337352 -2.2072895,0.01601326 8.7185884,-4.0017078 c -1.7454984,2.3720609 -1.7354408,5.6174519 -6e-7,8.035443 z"
         style="fill-rule:evenodd;stroke-width:0.625;stroke-linejoin:round"
         id="path4539"
         inkscape:connector-curvature="0" />
    </marker>
  </defs>
  <metadata
     id="metadata7">
    <rdf:RDF>
      <cc:Work
         rdf:about="">
        <dc:format>image/svg+xml</dc:format>
        <dc:type
           rdf:resource="http://purl.org/dc/dcmitype/StillImage" />
        <dc:title></dc:title>
      </cc:Work>
    </rdf:RDF>
  </metadata>
  <g
     transform="translate(0,-924.3622)"
     id="layer1"
     inkscape:groupmode="layer"
     inkscape:label="Layer 1">
    <g
       id="g3042"
       inkscape:label="Gear12"
       transform="translate(36.43345,31.926681)">
      <path
         id="path3044"
         style="fill:none;stroke:#000000"
         d="m 31.493,-4.625 4.02,-0.59 2.357,0.229 6.65,3.01 0,3.952 -6.65,3.01 -2.357,0.229 -4.02,-0.59 -1.907,7.117 3.776,1.498 1.928,1.377 4.253,5.932 -1.976,3.422 -7.263,-0.718 -2.157,-0.98 -3.185,-2.521 -5.21,5.21 2.521,3.185 0.98,2.157 0.718,7.263 -3.422,1.976 -5.932,-4.253 -1.377,-1.928 -1.498,-3.776 -7.117,1.907 0.59,4.02 -0.229,2.357 -3.01,6.65 -3.952,0 -3.01,-6.65 -0.229,-2.357 0.59,-4.02 -7.117,-1.907 -1.498,3.776 -1.377,1.928 -5.932,4.253 -3.422,-1.976 0.718,-7.263 0.98,-2.157 2.521,-3.185 -5.21,-5.21 -3.185,2.521 -2.157,0.98 -7.263,0.718 -1.976,-3.422 4.253,-5.932 1.928,-1.377 3.776,-1.498 -1.907,-7.117 -4.02,0.59 -2.357,-0.229 -6.65,-3.01 0,-3.952 6.65,-3.01 2.357,-0.229 4.02,0.59 1.907,-7.117 -3.776,-1.498 -1.928,-1.377 -4.253,-5.932 1.976,-3.422 7.263,0.718 2.157,0.98 3.185,2.521 5.21,-5.21 -2.521,-3.185 -0.98,-2.157 -0.718,-7.263 3.422,-1.976 5.932,4.253 1.377,1.928 1.498,3.776 7.117,-1.907 -0.59,-4.02 0.229,-2.357 3.01,-6.65 3.952,0 3.01,6.65 0.229,2.357 -0.59,4.02 7.117,1.907 1.498,-3.776 1.377,-1.928 5.932,-4.253 3.422,1.976 -0.718,7.263 -0.98,2.157 -2.521,3.185 5.21,5.21 3.185,-2.521 2.157,-0.98 7.263,-0.718 1.976,3.422 -4.253,5.932 -1.928,1.377 -3.776,1.498 z"
         inkscape:connector-curvature="0" />
    </g>
    <g
       transform="translate(11.533556,-3.27107)"
       inkscape:label="Gear24"
       id="g3315">
      <path
         d="m 69.802,-5.621 1.754,-0.141 4.675,0.766 6.498,2.719 0,4.554 -6.498,2.719 -4.675,0.766 -1.754,-0.141 -0.923,7.016 1.73,0.317 4.317,1.95 5.574,4.308 -1.179,4.4 -6.981,0.944 -4.714,-0.47 -1.657,-0.59 -2.708,6.537 1.589,0.755 3.666,3 4.268,5.604 -2.277,3.945 -6.987,-0.895 -4.432,-1.674 -1.448,-0.999 -4.308,5.614 1.34,1.14 2.764,3.847 2.673,6.518 -3.221,3.221 -6.518,-2.673 -3.847,-2.764 -1.14,-1.34 -5.614,4.308 0.999,1.448 1.674,4.432 0.895,6.987 -3.945,2.277 -5.604,-4.268 -3,-3.666 -0.755,-1.589 -6.537,2.708 0.59,1.657 0.47,4.714 -0.944,6.981 -4.4,1.179 -4.308,-5.574 -1.95,-4.317 -0.317,-1.73 -7.016,0.923 0.141,1.754 -0.766,4.675 -2.719,6.498 -4.554,0 -2.719,-6.498 -0.766,-4.675 0.141,-1.754 -7.016,-0.923 -0.317,1.73 -1.95,4.317 -4.308,5.574 -4.4,-1.179 -0.944,-6.981 0.47,-4.714 0.59,-1.657 -6.537,-2.708 -0.755,1.589 -3,3.666 -5.604,4.268 -3.945,-2.277 0.895,-6.987 1.674,-4.432 0.999,-1.448 -5.614,-4.308 -1.14,1.34 -3.847,2.764 -6.518,2.673 -3.221,-3.221 2.673,-6.518 2.764,-3.847 1.34,-1.14 -4.308,-5.614 -1.448,0.999 -4.432,1.674 -6.987,0.895 -2.277,-3.945 4.268,-5.604 3.666,-3 1.589,-0.755 -2.708,-6.537 -1.657,0.59 -4.714,0.47 -6.981,-0.944 -1.179,-4.4 5.574,-4.308 4.317,-1.95 1.73,-0.317 -0.923,-7.016 -1.754,0.141 -4.675,-0.766 -6.498,-2.719 0,-4.554 6.498,-2.719 4.675,-0.766 1.754,0.141 0.923,-7.016 -1.73,-0.317 -4.317,-1.95 -5.574,-4.308 1.179,-4.4 6.981,-0.944 4.714,0.47 1.657,0.59 2.708,-6.537 -1.589,-0.755 -3.666,-3 -4.268,-5.604 2.277,-3.945 6.987,0.895 4.432,1.674 1.448,0.999 4.308,-5.614 -1.34,-1.14 -2.764,-3.847 -2.673,-6.518 3.221,-3.221 6.518,2.673 3.847,2.764 1.14,1.34 5.614,-4.308 -0.999,-1.448 -1.674,-4.432 -0.895,-6.987 3.945,-2.277 5.604,4.268 3,3.666 0.755,1.589 6.537,-2.708 -0.59,-1.657 -0.47,-4.714 0.944,-6.981 4.4,-1.179 4.308,5.574 1.95,4.317 0.317,1.73 7.016,-0.923 -0.141,-1.754 0.766,-4.675 2.719,-6.498 4.554,0 2.719,6.498 0.766,4.675 -0.141,1.754 7.016,0.923 0.317,-1.73 1.95,-4.317 4.308,-5.574 4.4,1.179 0.944,6.981 -0.47,4.714 -0.59,1.657 6.537,2.708 0.755,-1.589 3,-3.666 5.604,-4.268 3.945,2.277 -0.895,6.987 -1.674,4.432 -0.999,1.448 5.614,4.308 1.14,-1.34 3.847,-2.764 6.518,-2.673 3.221,3.221 -2.673,6.518 -2.764,3.847 -1.34,1.14 4.308,5.614 1.448,-0.999 4.432,-1.674 6.987,-0.895 2.277,3.945 -4.268,5.604 -3.666,3 -1.589,0.755 2.708,6.537 1.657,-0.59 4.714,-0.47 6.981,0.944 1.179,4.4 -5.574,4.308 -4.317,1.95 -1.73,0.317 z"
         style="fill:none;stroke:#000000"
         id="path3317"
         inkscape:connector-curvature="0" />
    </g>
    <g
       id="g3387"
       inkscape:label="Gear24"
       transform="translate(11.533556,-3.27107)">
      <path
         id="path3389"
         style="fill:none;stroke:#000000"
         d="m 69.802,-5.621 1.754,-0.141 4.675,0.766 6.498,2.719 0,4.554 -6.498,2.719 -4.675,0.766 -1.754,-0.141 -0.923,7.016 1.73,0.317 4.317,1.95 5.574,4.308 -1.179,4.4 -6.981,0.944 -4.714,-0.47 -1.657,-0.59 -2.708,6.537 1.589,0.755 3.666,3 4.268,5.604 -2.277,3.945 -6.987,-0.895 -4.432,-1.674 -1.448,-0.999 -4.308,5.614 1.34,1.14 2.764,3.847 2.673,6.518 -3.221,3.221 -6.518,-2.673 -3.847,-2.764 -1.14,-1.34 -5.614,4.308 0.999,1.448 1.674,4.432 0.895,6.987 -3.945,2.277 -5.604,-4.268 -3,-3.666 -0.755,-1.589 -6.537,2.708 0.59,1.657 0.47,4.714 -0.944,6.981 -4.4,1.179 -4.308,-5.574 -1.95,-4.317 -0.317,-1.73 -7.016,0.923 0.141,1.754 -0.766,4.675 -2.719,6.498 -4.554,0 -2.719,-6.498 -0.766,-4.675 0.141,-1.754 -7.016,-0.923 -0.317,1.73 -1.95,4.317 -4.308,5.574 -4.4,-1.179 -0.944,-6.981 0.47,-4.714 0.59,-1.657 -6.537,-2.708 -0.755,1.589 -3,3.666 -5.604,4.268 -3.945,-2.277 0.895,-6.987 1.674,-4.432 0.999,-1.448 -5.614,-4.308 -1.14,1.34 -3.847,2.764 -6.518,2.673 -3.221,-3.221 2.673,-6.518 2.764,-3.847 1.34,-1.14 -4.308,-5.614 -1.448,0.999 -4.432,1.674 -6.987,0.895 -2.277,-3.945 4.268,-5.604 3.666,-3 1.589,-0.755 -2.708,-6.537 -1.657,0.59 -4.714,0.47 -6.981,-0.944 -1.179,-4.4 5.574,-4.308 4.317,-1.95 1.73,-0.317 -0.923,-7.016 -1.754,0.141 -4.675,-0.766 -6.498,-2.719 0,-4.554 6.498,-2.719 4.675,-0.766 1.754,0.141 0.923,-7.016 -1.73,-0.317 -4.317,-1.95 -5.574,-4.308 1.179,-4.4 6.981,-0.944 4.714,0.47 1.657,0.59 2.708,-6.537 -1.589,-0.755 -3.666,-3 -4.268,-5.604 2.277,-3.945 6.987,0.895 4.432,1.674 1.448,0.999 4.308,-5.614 -1.34,-1.14 -2.764,-3.847 -2.673,-6.518 3.221,-3.221 6.518,2.673 3.847,2.764 1.14,1.34 5.614,-4.308 -0.999,-1.448 -1.674,-4.432 -0.895,-6.987 3.945,-2.277 5.604,4.268 3,3.666 0.755,1.589 6.537,-2.708 -0.59,-1.657 -0.47,-4.714 0.944,-6.981 4.4,-1.179 4.308,5.574 1.95,4.317 0.317,1.73 7.016,-0.923 -0.141,-1.754 0.766,-4.675 2.719,-6.498 4.554,0 2.719,6.498 0.766,4.675 -0.141,1.754 7.016,0.923 0.317,-1.73 1.95,-4.317 4.308,-5.574 4.4,1.179 0.944,6.981 -0.47,4.714 -0.59,1.657 6.537,2.708 0.755,-1.589 3,-3.666 5.604,-4.268 3.945,2.277 -0.895,6.987 -1.674,4.432 -0.999,1.448 5.614,4.308 1.14,-1.34 3.847,-2.764 6.518,-2.673 3.221,3.221 -2.673,6.518 -2.764,3.847 -1.34,1.14 4.308,5.614 1.448,-0.999 4.432,-1.674 6.987,-0.895 2.277,3.945 -4.268,5.604 -3.666,3 -1.589,0.755 2.708,6.537 1.657,-0.59 4.714,-0.47 6.981,0.944 1.179,4.4 -5.574,4.308 -4.317,1.95 -1.73,0.317 z"
         inkscape:connector-curvature="0" />
    </g>
  </g>
  <path
     style="fill:#000000;fill-opacity:1;stroke:#000000;stroke-width:2.66277695"
     d="M 108.84375 6.90625 L 102.84375 11.78125 L 102.25 13.0625 L 101.28125 18.0625 L 94.5625 18.15625 L 93.4375 13.1875 L 92.8125 11.9375 L 86.6875 7.25 L 83.75 8.71875 L 83.84375 16.4375 L 84.46875 17.6875 L 87.75 21.5625 L 83.65625 26.875 L 79.0625 24.65625 L 77.71875 24.375 L 70.1875 26.21875 L 69.53125 29.4375 L 75.625 34.1875 L 77 34.5 L 82.0625 34.34375 L 83.65625 40.84375 L 79.09375 43.0625 L 78 43.9375 L 74.78125 50.96875 L 76.875 53.5 L 84.375 51.6875 L 85.46875 50.8125 L 88.5 46.75 L 94.59375 49.5625 L 93.46875 54.5 L 93.5 55.90625 L 96.96875 62.8125 L 100.25 62.75 L 103.53125 55.75 L 103.5 54.34375 L 102.21875 49.4375 L 108.21875 46.4375 L 111.375 50.40625 L 112.5 51.25 L 120.0625 52.84375 L 122.0625 50.25 L 118.625 43.3125 L 117.53125 42.46875 L 112.875 40.40625 L 114.28125 33.84375 L 119.34375 33.84375 L 120.71875 33.5 L 126.65625 28.5625 L 125.875 25.375 L 118.34375 23.75 L 116.96875 24.09375 L 112.46875 26.4375 L 108.1875 21.25 L 111.375 17.28125 L 111.9375 16 L 111.8125 8.28125 L 108.84375 6.90625 z M 98.125 21.71875 C 104.80293 21.71875 110.1875 27.103323 110.1875 33.78125 C 110.1875 40.459177 104.80293 45.875 98.125 45.875 C 91.447073 45.875 86.03125 40.459177 86.03125 33.78125 C 86.03125 27.103323 91.447073 21.71875 98.125 21.71875 z "
     id="path8417" />
  <path
     inkscape:connector-curvature="0"
     style="fill:#000000;fill-opacity:1;stroke:#000000;stroke-width:2.66277695"
     d="M 48.4375,31 45.53125,37.40625 45.5,38 45.625,43.875 37.4375,45.125 35.78125,39.5 35.5625,38.9375 30.875,33.71875 25.65625,36.03125 26.34375,43 l 0.25,0.5625 3.03125,5 -6.46875,5.1875 -4.21875,-4.0625 -0.46875,-0.375 -6.6875,-2.1875 -3.375,4.625 4.09375,5.71875 0.46875,0.34375 5.15625,2.8125 -3.03125,7.71875 -5.6875,-1.40625 -0.5625,-0.0625 -6.875,1.4375 -0.625,5.6875 6.375,2.90625 0.59375,0.03125 5.875,-0.125 1.25,8.1875 -5.625,1.625 -0.53125,0.25 -5.25,4.6875 2.3125,5.21875 7,-0.6875 0.53125,-0.25 5,-3.03125 5.1875,6.46875 L 20,103.5 l -0.34375,0.46875 -2.1875,6.6875 4.59375,3.375 5.71875,-4.09375 0.34375,-0.46875 2.8125,-5.15625 7.71875,3 L 37.25,113 l -0.0625,0.59375 1.4375,6.875 5.6875,0.625 2.90625,-6.40625 0.03125,-0.5625 -0.125,-5.875 8.1875,-1.25 1.65625,5.625 0.21875,0.53125 4.6875,5.25 5.21875,-2.3125 -0.6875,-7 -0.21875,-0.53125 -3.0625,-5 6.46875,-5.1875 4.21875,4.0625 0.46875,0.34375 6.6875,2.1875 3.375,-4.59375 L 80.25,94.65625 79.78125,94.3125 74.625,91.5 l 3.03125,-7.71875 5.6875,1.40625 0.5625,0.0625 6.875,-1.4375 0.625,-5.6875 -6.375,-2.90625 -0.59375,-0.0625 -5.875,0.15625 -1.25,-8.21875 5.625,-1.625 0.53125,-0.21875 5.25,-4.6875 -2.3125,-5.21875 -7,0.6875 -0.53125,0.21875 -5,3.0625 -5.1875,-6.46875 4.0625,-4.21875 0.34375,-0.46875 2.1875,-6.6875 -4.59375,-3.375 L 64.96875,42.1875 64.625,42.65625 61.8125,47.8125 54.09375,44.78125 55.5,39.09375 55.5625,38.53125 54.125,31.625 48.4375,31 z M 46.375,51.8125 c 13.389403,0 24.25,10.860597 24.25,24.25 0,13.389404 -10.860597,24.25 -24.25,24.25 -13.389404,0 -24.25,-10.860596 -24.25,-24.25 0,-13.389403 10.860596,-24.25 24.25,-24.25 z"
     id="path7170" />
  <path
     sodipodi:type="arc"
     style="fill:#000000;fill-opacity:1"
     id="path4829"
     sodipodi:cx="-78.034286"
     sodipodi:cy="45.672569"
     sodipodi:rx="7.323606"
     sodipodi:ry="7.323606"
     d="m -70.71068,45.672569 a 7.323606,7.323606 0 1 1 -14.647213,0 7.323606,7.323606 0 1 1 14.647213,0 z"
     transform="matrix(1.2068965,0,0,1.2068965,140.55476,20.937026)" />
  <path
     sodipodi:type="arc"
     style="fill:#000000;fill-opacity:1"
     id="path4841"
     sodipodi:cx="37.142857"
     sodipodi:cy="-4.1428561"
     sodipodi:rx="8.2142859"
     sodipodi:ry="8.2142859"
     d="m 45.357142,-4.1428561 a 8.2142859,8.2142859 0 1 1 -16.428571,0 8.2142859,8.2142859 0 1 1 16.428571,0 z"
     transform="matrix(0.56958719,0,0,0.56958719,76.954946,36.155584)" />
</svg>
